<svg width="520" height="620" viewBox="0 0 520 620" xmlns="http://www.w3.org/2000/svg">
  <defs>
    <linearGradient id="bgGrad2" x1="0" y1="0" x2="1" y2="1">
      <stop offset="0%" stop-color="#151022"/>
      <stop offset="100%" stop-color="#0f0f0f"/>
    </linearGradient>
    <linearGradient id="rim2" x1="0" y1="0" x2="1" y2="1">
      <stop offset="0%" stop-color="#8B5CF6"/>
      <stop offset="100%" stop-color="#3B82F6"/>
    </linearGradient>
  </defs>
  <rect width="520" height="620" fill="url(#bgGrad2)"/>
  <g stroke="#3B82F6" stroke-opacity="0.09">
    <line x1="0" y1="100" x2="520" y2="100"/>
    <line x1="0" y1="200" x2="520" y2="200"/>
    <line x1="0" y1="300" x2="520" y2="300"/>
    <line x1="0" y1="400" x2="520" y2="400"/>
    <line x1="0" y1="500" x2="520" y2="500"/>
    <line x1="130" y1="0" x2="130" y2="620"/>
    <line x1="260" y1="0" x2="260" y2="620"/>
    <line x1="390" y1="0" x2="390" y2="620"/>
  </g>
  <!-- monitor / setup silhouette -->
  <rect x="90" y="330" width="340" height="200" rx="10" fill="#1c1530" stroke="url(#rim2)" stroke-width="1.5" stroke-opacity="0.5"/>
  <rect x="115" y="355" width="290" height="150" rx="4" fill="#0F0F0F"/>
  <rect x="130" y="370" width="120" height="8" rx="2" fill="#8B5CF6" opacity="0.7"/>
  <rect x="130" y="390" width="200" height="8" rx="2" fill="#3B82F6" opacity="0.5"/>
  <rect x="130" y="410" width="160" height="8" rx="2" fill="#8B5CF6" opacity="0.4"/>
  <circle cx="330" cy="450" r="26" fill="none" stroke="#8B5CF6" stroke-width="2"/>
  <path d="M330,434 L330,466 M314,450 L346,450" stroke="#8B5CF6" stroke-width="1.5"/>
  <!-- person silhouette in front -->
  <ellipse cx="260" cy="255" rx="80" ry="92" fill="#241a3d"/>
  <ellipse cx="260" cy="255" rx="80" ry="92" fill="none" stroke="url(#rim2)" stroke-width="2" stroke-opacity="0.55"/>
  <path d="M120,600 C120,470 180,410 260,410 C340,410 400,470 400,600 Z" fill="#1c1530" stroke="url(#rim2)" stroke-width="1.5" stroke-opacity="0.4"/>
  <rect x="180" y="230" width="160" height="12" rx="6" fill="#0F0F0F"/>
  <rect x="180" y="230" width="160" height="12" rx="6" fill="none" stroke="#3B82F6" stroke-width="1.2"/>
</svg>
